<?xml version="1.0" encoding="iso-8859-1"?>
<!-- Generator: Adobe Illustrator 16.0.0, SVG Export Plug-In . SVG Version: 6.00 Build 0)  -->
<!DOCTYPE svg PUBLIC "-//W3C//DTD SVG 1.1//EN" "http://www.w3.org/Graphics/SVG/1.1/DTD/svg11.dtd">
<svg version="1.1" xmlns="http://www.w3.org/2000/svg" xmlns:xlink="http://www.w3.org/1999/xlink" x="0px" y="0px" width="512px"
	 height="512px" viewBox="0 0 512 512" style="enable-background:new 0 0 512 512;" xml:space="preserve">
<g id="Guides_For_Artboard">
</g>
<g id="Artwork">
</g>
<g id="Layer_3">
	<g>
		<circle style="fill:#E6A52E;" cx="255.303" cy="253.943" r="245.001"/>
		<g>
			<path style="fill:#C0C2C5;" d="M265.898,185.819v-16.146c7.189-3.459,12.164-10.79,12.164-19.302
				c0-11.836-9.596-21.432-21.432-21.432c-11.837,0-21.433,9.596-21.433,21.432c0,8.512,4.975,15.843,12.164,19.302v16.02
				c2.742-0.14,5.502-0.211,8.278-0.211C259.088,185.482,262.506,185.604,265.898,185.819z"/>
			<path style="fill:#C0C2C5;" d="M416.42,345.53H94.186c-9.228,0-16.708,7.481-16.708,16.708c0,9.229,7.48,16.709,16.708,16.709
				H416.42c9.228,0,16.708-7.48,16.708-16.709C433.128,353.011,425.647,345.53,416.42,345.53z"/>
			<path style="fill:#EAEBEC;" d="M265.898,185.819c-3.393-0.215-6.811-0.337-10.258-0.337c-2.776,0-5.536,0.071-8.278,0.211
				c-84.445,4.308-151.591,74.142-151.591,159.658c127.433,0,203.892,0,319.738,0C415.51,260.505,349.409,191.109,265.898,185.819z"
				/>
		</g>
	</g>
</g>
</svg>
