<svg xmlns="http://www.w3.org/2000/svg" version="1.1" xmlns:xlink="http://www.w3.org/1999/xlink" xmlns:svgjs="http://svgjs.dev/svgjs" width="1000" height="191" viewBox="0 0 1000 191"><g transform="matrix(1,0,0,1,-0.6060605728776522,-0.35146910440055024)"><svg viewBox="0 0 396 76" data-background-color="#ffffff" preserveAspectRatio="xMidYMid meet" height="191" width="1000" xmlns="http://www.w3.org/2000/svg" xmlns:xlink="http://www.w3.org/1999/xlink"><g id="tight-bounds" transform="matrix(1,0,0,1,0.2400000131404454,0.13985158080859605)"><svg viewBox="0 0 395.52 75.72029683838281" height="75.72029683838281" width="395.52"><g><svg viewBox="0 0 502.35139206220515 96.17262470703125" height="75.72029683838281" width="395.52"><g><svg viewBox="0 0 502.35139206220515 96.17262470703125" height="96.17262470703125" width="502.35139206220515"><g id="textblocktransform"><svg viewBox="0 0 502.35139206220515 96.17262470703125" height="96.17262470703125" width="502.35139206220515" id="textblock"><g><svg viewBox="0 0 502.35139206220515 58.66040039062499" height="58.66040039062499" width="502.35139206220515"><g><svg><g></g><g></g></svg></g><g><svg><g></g><g><svg></svg></g></svg></g><g id="text-0"><svg viewBox="0 0 502.35139206220515 58.66040039062499" height="58.66040039062499" width="502.35139206220515"><g transform="matrix(1,0,0,1,0,11.227172851562496)"><svg width="192.50488281249997" viewBox="1.340000033378601 -35.45000076293945 192.5 36.209999084472656" height="36.2060546875" data-palette-color="#2b2b2b"><path d="M31.1-17.36L31.1-3.54Q28.66-1.46 25.66-0.35 22.66 0.76 19.41 0.76L19.41 0.76Q16.92 0.76 14.61 0.11 12.3-0.54 10.3-1.72 8.3-2.91 6.64-4.55 4.98-6.2 3.81-8.22 2.64-10.23 1.99-12.55 1.34-14.87 1.34-17.36L1.34-17.36Q1.34-19.85 1.99-22.14 2.64-24.44 3.81-26.45 4.98-28.47 6.64-30.11 8.3-31.76 10.3-32.93 12.3-34.11 14.61-34.75 16.92-35.4 19.41-35.4L19.41-35.4Q22.66-35.4 25.66-34.29 28.66-33.18 31.1-31.1L31.1-31.1 27.44-25Q25.85-26.61 23.78-27.53 21.7-28.44 19.41-28.44L19.41-28.44Q17.11-28.44 15.1-27.56 13.09-26.68 11.57-25.18 10.06-23.68 9.18-21.67 8.3-19.65 8.3-17.36L8.3-17.36Q8.3-15.04 9.18-13.01 10.06-10.99 11.57-9.47 13.09-7.96 15.1-7.08 17.11-6.2 19.41-6.2L19.41-6.2Q20.73-6.2 21.97-6.52 23.22-6.84 24.34-7.4L24.34-7.4 24.34-17.36 31.1-17.36ZM61.01-7.01L61.01 0 36.5 0 36.5-35.01 43.5-35.01 43.5-7.01 61.01-7.01ZM97.75-17.36L97.75-17.36Q97.75-14.87 97.1-12.56 96.45-10.25 95.28-8.24 94.11-6.23 92.45-4.57 90.79-2.91 88.79-1.72 86.79-0.54 84.47 0.11 82.15 0.76 79.66 0.76L79.66 0.76Q77.17 0.76 74.86 0.11 72.55-0.54 70.54-1.72 68.53-2.91 66.87-4.57 65.2-6.23 64.02-8.24 62.84-10.25 62.19-12.56 61.54-14.87 61.54-17.36L61.54-17.36Q61.54-19.85 62.19-22.17 62.84-24.49 64.02-26.49 65.2-28.49 66.87-30.15 68.53-31.81 70.54-32.98 72.55-34.16 74.86-34.8 77.17-35.45 79.66-35.45L79.66-35.45Q82.15-35.45 84.47-34.8 86.79-34.16 88.79-32.98 90.79-31.81 92.45-30.15 94.11-28.49 95.28-26.49 96.45-24.49 97.1-22.17 97.75-19.85 97.75-17.36ZM90.79-17.36L90.79-17.36Q90.79-19.65 89.91-21.69 89.03-23.73 87.53-25.23 86.03-26.73 83.99-27.61 81.95-28.49 79.66-28.49L79.66-28.49Q77.34-28.49 75.31-27.61 73.29-26.73 71.77-25.23 70.26-23.73 69.38-21.69 68.5-19.65 68.5-17.36L68.5-17.36Q68.5-15.06 69.38-13.05 70.26-11.04 71.77-9.52 73.29-8.01 75.31-7.13 77.34-6.25 79.66-6.25L79.66-6.25Q81.95-6.25 83.99-7.13 86.03-8.01 87.53-9.52 89.03-11.04 89.91-13.05 90.79-15.06 90.79-17.36ZM130.34-10.5L130.34-10.5Q130.34-8.33 129.51-6.42 128.68-4.52 127.25-3.09 125.82-1.66 123.92-0.83 122.01 0 119.84 0L119.84 0 102.34 0 102.34-35.01 119.84-35.01Q122.01-35.01 123.92-34.18 125.82-33.35 127.25-31.92 128.68-30.49 129.51-28.59 130.34-26.68 130.34-24.51L130.34-24.51Q130.34-23.54 130.07-22.51 129.8-21.48 129.31-20.53 128.83-19.58 128.14-18.8 127.46-18.02 126.63-17.5L126.63-17.5Q127.48-17.04 128.17-16.25 128.85-15.45 129.34-14.5 129.83-13.55 130.08-12.51 130.34-11.47 130.34-10.5ZM109.34-13.99L109.34-7.01 119.84-7.01Q120.57-7.01 121.21-7.28 121.84-7.54 122.32-8.02 122.8-8.5 123.06-9.13 123.33-9.77 123.33-10.5L123.33-10.5Q123.33-11.23 123.06-11.87 122.8-12.5 122.32-12.98 121.84-13.45 121.21-13.72 120.57-13.99 119.84-13.99L119.84-13.99 109.34-13.99ZM109.34-28L109.34-21 119.84-21Q120.57-21 121.21-21.26 121.84-21.53 122.32-22.01 122.8-22.49 123.06-23.13 123.33-23.78 123.33-24.51L123.33-24.51Q123.33-25.24 123.06-25.88 122.8-26.51 122.32-26.99 121.84-27.47 121.21-27.73 120.57-28 119.84-28L119.84-28 109.34-28ZM142.23-13.99L156.24-13.99 156.24-21Q156.24-22.44 155.69-23.72 155.14-25 154.19-25.95 153.24-26.9 151.96-27.45 150.67-28 149.23-28L149.23-28Q147.79-28 146.51-27.45 145.23-26.9 144.28-25.95 143.32-25 142.78-23.72 142.23-22.44 142.23-21L142.23-21 142.23-13.99ZM163.25-21L163.25 0 156.24 0 156.24-7.01 142.23-7.01 142.23 0 135.24 0 135.24-21Q135.24-23.9 136.34-26.45 137.44-29 139.33-30.91 141.23-32.81 143.78-33.91 146.33-35.01 149.23-35.01L149.23-35.01Q152.14-35.01 154.69-33.91 157.24-32.81 159.15-30.91 161.05-29 162.15-26.45 163.25-23.9 163.25-21L163.25-21ZM193.84-7.01L193.84 0 169.32 0 169.32-35.01 176.33-35.01 176.33-7.01 193.84-7.01Z" opacity="1" transform="matrix(1,0,0,1,0,0)" fill="#2b2b2b" class="undefined-p-0"></path></svg></g><g><svg xmlns="http://www.w3.org/2000/svg" xmlns:xlink="http://www.w3.org/1999/xlink" version="1.1" x="206.35424804687497" y="0" viewBox="278 343 445 265" enable-background="new 0 0 1000 1000" xml:space="preserve" height="58.66040039062499" width="98.50520065595518" class="icon-s-0" data-fill-palette-color="accent" id="s-0"><g fill="#f4a424" data-fill-palette-color="accent"><path d="M510 373v-11h11v-7h-11v-12h-20v12h-13v7h13v11c-106 5-191 93-191 201h403C702 466 617 378 510 373zM671 549c0-3-1-7-2-11s-2-9-4-14c-1-3-2-5-3-8s-2-5-3-8c-2-6-6-11-9-17-4-5-7-11-12-16-4-5-9-10-14-15-5-4-11-9-16-12-5-4-12-7-17-10-6-2-11-5-17-7-3-1-5-2-8-2-3-1-5-1-8-2-5-1-9-2-14-2-4-1-8-1-10-1-6 0-9 0-9 0h-1c-7 0-12-5-12-12s5-12 12-12h1c0 0 4 0 11 1 3 0 7 1 12 2 5 1 10 2 15 4 3 1 6 2 9 3s6 2 9 4c6 2 12 6 18 9 6 4 12 8 18 13s11 10 16 15c5 6 10 11 14 18 4 6 7 12 11 19 3 6 6 12 7 19 1 3 2 6 3 9 1 3 1 6 2 8 1 5 2 10 2 15 1 4 1 8 1 11 0 6 0 10 0 10S672 555 671 549z" fill="#f4a424" data-fill-palette-color="accent"></path><polygon points="710,580 290,580 278,608 723,608  " fill="#f4a424" data-fill-palette-color="accent"></polygon></g></svg></g><g transform="matrix(1,0,0,1,318.70881393720515,11.178344726562496)"><svg width="183.64257812500003" viewBox="1.340000033378601 -35.5 183.6300048828125 36.2599983215332" height="36.2548828125" data-palette-color="#2b2b2b"><path d="M27.49-9.69L31.2-3.59Q28.76-1.49 25.73-0.37 22.71 0.76 19.46 0.76L19.46 0.76Q16.97 0.76 14.66 0.11 12.35-0.54 10.34-1.72 8.33-2.91 6.67-4.57 5-6.23 3.82-8.24 2.64-10.25 1.99-12.56 1.34-14.87 1.34-17.36L1.34-17.36Q1.34-19.85 1.99-22.17 2.64-24.49 3.82-26.5 5-28.52 6.67-30.18 8.33-31.84 10.34-33.02 12.35-34.2 14.66-34.85 16.97-35.5 19.46-35.5L19.46-35.5Q22.71-35.5 25.73-34.39 28.76-33.28 31.2-31.15L31.2-31.15 27.49-25.05Q25.95-26.71 23.85-27.6 21.75-28.49 19.46-28.49L19.46-28.49Q17.14-28.49 15.11-27.61 13.09-26.73 11.57-25.23 10.06-23.73 9.18-21.69 8.3-19.65 8.3-17.36L8.3-17.36Q8.3-15.06 9.18-13.05 10.06-11.04 11.57-9.52 13.09-8.01 15.11-7.13 17.14-6.25 19.46-6.25L19.46-6.25Q21.75-6.25 23.85-7.14 25.95-8.03 27.49-9.69L27.49-9.69ZM62.86-35.01L62.86-13.99Q62.86-11.08 61.77-8.53 60.67-5.98 58.76-4.09 56.86-2.2 54.31-1.1 51.76 0 48.85 0L48.85 0Q45.94 0 43.39-1.1 40.84-2.2 38.95-4.09 37.06-5.98 35.96-8.53 34.86-11.08 34.86-13.99L34.86-13.99 34.86-35.01 41.84-35.01 41.84-13.99Q41.84-12.55 42.39-11.28 42.94-10.01 43.89-9.06 44.85-8.11 46.13-7.56 47.41-7.01 48.85-7.01L48.85-7.01Q50.29-7.01 51.57-7.56 52.85-8.11 53.81-9.06 54.76-10.01 55.31-11.28 55.86-12.55 55.86-13.99L55.86-13.99 55.86-35.01 62.86-35.01ZM75.95-35.01L75.95 0 68.94 0 68.94-35.01 75.95-35.01ZM80.39-24.51L80.39-24.51Q80.39-26.68 81.22-28.59 82.05-30.49 83.48-31.92 84.9-33.35 86.81-34.18 88.71-35.01 90.89-35.01L90.89-35.01 106.95-35.01 106.95-28 90.89-28Q90.15-28 89.52-27.73 88.88-27.47 88.41-26.99 87.93-26.51 87.66-25.88 87.39-25.24 87.39-24.51L87.39-24.51Q87.39-23.78 87.66-23.13 87.93-22.49 88.41-22.01 88.88-21.53 89.52-21.26 90.15-21 90.89-21L90.89-21 97.89-21Q100.07-21 101.98-20.18 103.9-19.36 105.33-17.93 106.76-16.5 107.57-14.59 108.39-12.67 108.39-10.5L108.39-10.5Q108.39-8.33 107.57-6.42 106.76-4.52 105.33-3.09 103.9-1.66 101.98-0.83 100.07 0 97.89 0L97.89 0 82.34 0 82.34-7.01 97.89-7.01Q98.63-7.01 99.26-7.28 99.89-7.54 100.37-8.02 100.85-8.5 101.12-9.13 101.38-9.77 101.38-10.5L101.38-10.5Q101.38-11.23 101.12-11.87 100.85-12.5 100.37-12.98 99.89-13.45 99.26-13.72 98.63-13.99 97.89-13.99L97.89-13.99 90.89-13.99Q88.71-13.99 86.81-14.82 84.9-15.65 83.48-17.08 82.05-18.51 81.22-20.42 80.39-22.34 80.39-24.51ZM119.99-35.01L119.99 0 112.98 0 112.98-35.01 119.99-35.01ZM154.48-35.01L154.48 0 146.98 0 133.48-23.05 133.48 0 126.48 0 126.48-35.01 133.97-35.01 147.47-11.94 147.47-35.01 154.48-35.01ZM184.97-7.01L184.97 0 160.97 0 160.97-35.01 184.97-35.01 184.97-28 167.98-28 167.98-21 179.48-21 179.48-13.99 167.98-13.99 167.98-7.01 184.97-7.01Z" opacity="1" transform="matrix(1,0,0,1,0,0)" fill="#2b2b2b" class="undefined-p-1"></path></svg></g></svg></g></svg></g><g transform="matrix(1,0,0,1,91.1117177484191,67.20778095703125)"><svg viewBox="0 0 320.12795656536696 28.96484375" height="28.96484375" width="320.12795656536696"><g transform="matrix(1,0,0,1,0,0)"><svg width="320.12795656536696" viewBox="1.75 -41.5 602.2999877929688 54.5" height="28.96484375" data-palette-color="#f4a424"><path d="M14.35-17.75L14.35-8.05Q14.35-6.15 14.6-4.98 14.85-3.8 15.63-3.18 16.4-2.55 17.82-2.3 19.25-2.05 21.65-2L21.65-2 21.65 0 1.75 0 1.75-2Q3.4-2.05 4.45-2.3 5.5-2.55 6.05-3.15 6.6-3.75 6.8-4.85 7-5.95 7-7.7L7-7.7 7-30.8Q7-32.55 6.83-33.63 6.65-34.7 6.15-35.33 5.65-35.95 4.73-36.18 3.8-36.4 2.3-36.5L2.3-36.5 2.3-38.5 32.9-38.5 33.5-27.95 31.4-27.95Q31.1-30.1 30.53-31.58 29.95-33.05 28.9-33.98 27.85-34.9 26.2-35.3 24.55-35.7 22.15-35.7L22.15-35.7 15.25-35.7Q14.35-35.7 14.35-34.85L14.35-34.85 14.35-20.4Q17.4-20.4 19.33-20.65 21.25-20.9 22.4-21.63 23.55-22.35 24.05-23.6 24.55-24.85 24.75-26.9L24.75-26.9 26.6-26.9 26.6-11.25 24.75-11.25Q24.45-13.35 23.9-14.63 23.35-15.9 22.23-16.57 21.1-17.25 19.2-17.5 17.3-17.75 14.35-17.75L14.35-17.75ZM48.95-27L48.95-27Q51.95-27 54.62-25.98 57.3-24.95 59.32-23.15 61.35-21.35 62.52-18.88 63.7-16.4 63.7-13.45L63.7-13.45Q63.7-10.4 62.52-7.85 61.35-5.3 59.32-3.45 57.3-1.6 54.62-0.55 51.95 0.5 48.95 0.5L48.95 0.5Q46 0.5 43.35-0.53 40.7-1.55 38.7-3.4 36.7-5.25 35.55-7.83 34.4-10.4 34.4-13.45L34.4-13.45Q34.4-16.4 35.55-18.9 36.7-21.4 38.7-23.2 40.7-25 43.35-26 46-27 48.95-27ZM48.95-24.1L48.95-24.1Q47.45-24.1 46.2-23.33 44.95-22.55 44.07-21.15 43.2-19.75 42.72-17.78 42.25-15.8 42.25-13.4L42.25-13.4Q42.25-10.9 42.72-8.9 43.2-6.9 44.07-5.5 44.95-4.1 46.17-3.33 47.4-2.55 48.95-2.55L48.95-2.55Q50.5-2.55 51.77-3.33 53.05-4.1 53.95-5.53 54.85-6.95 55.35-8.95 55.85-10.95 55.85-13.4L55.85-13.4Q55.85-15.8 55.35-17.75 54.85-19.7 53.95-21.13 53.05-22.55 51.77-23.33 50.5-24.1 48.95-24.1ZM81.95-27L81.95-27Q84.95-27 87.62-25.98 90.3-24.95 92.32-23.15 94.35-21.35 95.52-18.88 96.7-16.4 96.7-13.45L96.7-13.45Q96.7-10.4 95.52-7.85 94.35-5.3 92.32-3.45 90.3-1.6 87.62-0.55 84.95 0.5 81.95 0.5L81.95 0.5Q79 0.5 76.35-0.53 73.7-1.55 71.7-3.4 69.7-5.25 68.55-7.83 67.4-10.4 67.4-13.45L67.4-13.45Q67.4-16.4 68.55-18.9 69.7-21.4 71.7-23.2 73.7-25 76.35-26 79-27 81.95-27ZM81.95-24.1L81.95-24.1Q80.45-24.1 79.2-23.33 77.95-22.55 77.07-21.15 76.2-19.75 75.72-17.78 75.25-15.8 75.25-13.4L75.25-13.4Q75.25-10.9 75.72-8.9 76.2-6.9 77.07-5.5 77.95-4.1 79.17-3.33 80.4-2.55 81.95-2.55L81.95-2.55Q83.5-2.55 84.77-3.33 86.05-4.1 86.95-5.53 87.85-6.95 88.35-8.95 88.85-10.95 88.85-13.4L88.85-13.4Q88.85-15.8 88.35-17.75 87.85-19.7 86.95-21.13 86.05-22.55 84.77-23.33 83.5-24.1 81.95-24.1ZM122.59 0.5L122.59-3.2 122.39-3.2Q118.94 0.5 113.44 0.5L113.44 0.5Q110.59 0.5 108.22-0.5 105.84-1.5 104.12-3.3 102.39-5.1 101.44-7.58 100.49-10.05 100.49-13.05L100.49-13.05Q100.49-16.05 101.47-18.6 102.44-21.15 104.12-23.03 105.79-24.9 108.12-25.95 110.44-27 113.14-27L113.14-27Q115.64-27 117.57-26.25 119.49-25.5 120.94-23.7L120.94-23.7 121.14-23.7 121.14-27.95Q121.14-30.9 121.07-33.02 120.99-35.15 120.84-35.8L120.84-35.8Q120.59-36.85 119.32-37.33 118.04-37.8 115.39-37.8L115.39-37.8 115.39-39.5 128.04-41.5 128.04-12.9Q128.04-9.15 128.12-7.13 128.19-5.1 128.39-4.05L128.39-4.05Q128.49-3.4 128.69-3 128.89-2.6 129.29-2.38 129.69-2.15 130.37-2.08 131.04-2 132.09-2L132.09-2 132.09-0.05 122.59 0.5ZM121.04-12.4L121.04-14.35Q121.04-16.25 120.64-17.88 120.24-19.5 119.44-20.75L119.44-20.75Q118.54-22.2 117.14-22.95 115.74-23.7 114.14-23.7L114.14-23.7Q111.19-23.7 109.64-21 108.09-18.3 108.09-13.15L108.09-13.15Q108.09-7.95 109.64-5.15 111.19-2.35 114.09-2.35L114.09-2.35Q115.74-2.35 117.24-3.2 118.74-4.05 119.69-5.5L119.69-5.5Q120.39-6.6 120.72-8.22 121.04-9.85 121.04-12.4L121.04-12.4ZM157.79-14.1L157.79-10.95Q157.79-9.1 158.31-7.53 158.84-5.95 159.74-4.8 160.64-3.65 161.89-3 163.14-2.35 164.64-2.35L164.64-2.35Q167.64-2.35 169.19-5.1 170.74-7.85 170.74-13.2L170.74-13.2Q170.74-18.4 169.21-21.13 167.69-23.85 164.64-23.85L164.64-23.85Q162.84-23.85 161.31-22.88 159.79-21.9 158.94-20.15L158.94-20.15Q157.79-17.75 157.79-14.1L157.79-14.1ZM157.69-41.5L157.69-23.05 157.89-23.05Q159.19-24.95 161.24-25.98 163.29-27 165.89-27L165.89-27Q168.54-27 170.81-25.93 173.09-24.85 174.76-23 176.44-21.15 177.39-18.65 178.34-16.15 178.34-13.3L178.34-13.3Q178.34-10.3 177.31-7.78 176.29-5.25 174.51-3.4 172.74-1.55 170.36-0.5 167.99 0.55 165.34 0.55L165.34 0.55Q162.59 0.55 160.16-0.53 157.74-1.6 156.29-3.35L156.29-3.35 152.49 0 150.79 0 150.79-29.75Q150.79-34.45 150.14-36.2L150.14-36.2Q149.99-36.55 149.79-36.8 149.59-37.05 149.21-37.23 148.84-37.4 148.19-37.52 147.54-37.65 146.49-37.8L146.49-37.8 146.49-39.5 157.69-41.5ZM193.14-10.15L193.14-7.75Q193.14-5.8 193.31-4.67 193.49-3.55 194.04-2.95 194.59-2.35 195.64-2.18 196.69-2 198.44-2L198.44-2 198.44 0 181.74 0 181.74-2Q183.24-2.1 184.14-2.3 185.04-2.5 185.49-3.1 185.94-3.7 186.06-4.83 186.19-5.95 186.19-7.85L186.19-7.85 186.19-13.95Q186.19-17.05 186.04-18.9 185.89-20.75 185.39-21.75 184.89-22.75 183.96-23.08 183.04-23.4 181.54-23.4L181.54-23.4 181.54-25.15 191.54-27 192.34-21.25 192.54-21.25Q193.89-23.9 196.09-25.45 198.29-27 200.74-27L200.74-27Q202.64-27 203.84-26.05 205.04-25.1 205.04-23.65L205.04-23.65Q205.04-22.05 204.11-20.95 203.19-19.85 201.59-19.85L201.59-19.85Q200.84-19.85 200.24-20.15 199.64-20.45 199.16-20.83 198.69-21.2 198.21-21.53 197.74-21.85 197.24-21.85L197.24-21.85Q196.29-21.85 195.44-20.6 194.59-19.35 194.04-17.25L194.04-17.25Q193.64-15.75 193.39-13.88 193.14-12 193.14-10.15L193.14-10.15ZM221.28-27L221.28-27Q224.28-27 226.96-25.98 229.63-24.95 231.66-23.15 233.68-21.35 234.86-18.88 236.03-16.4 236.03-13.45L236.03-13.45Q236.03-10.4 234.86-7.85 233.68-5.3 231.66-3.45 229.63-1.6 226.96-0.55 224.28 0.5 221.28 0.5L221.28 0.5Q218.33 0.5 215.68-0.53 213.03-1.55 211.03-3.4 209.03-5.25 207.88-7.83 206.73-10.4 206.73-13.45L206.73-13.45Q206.73-16.4 207.88-18.9 209.03-21.4 211.03-23.2 213.03-25 215.68-26 218.33-27 221.28-27ZM221.28-24.1L221.28-24.1Q219.78-24.1 218.53-23.33 217.28-22.55 216.41-21.15 215.53-19.75 215.06-17.78 214.58-15.8 214.58-13.4L214.58-13.4Q214.58-10.9 215.06-8.9 215.53-6.9 216.41-5.5 217.28-4.1 218.51-3.33 219.73-2.55 221.28-2.55L221.28-2.55Q222.83-2.55 224.11-3.33 225.38-4.1 226.28-5.53 227.18-6.95 227.68-8.95 228.18-10.95 228.18-13.4L228.18-13.4Q228.18-15.8 227.68-17.75 227.18-19.7 226.28-21.13 225.38-22.55 224.11-23.33 222.83-24.1 221.28-24.1ZM261.13-13.1L261.13-18.3Q261.13-20.3 261.03-21.48 260.93-22.65 260.48-23.28 260.03-23.9 259.16-24.13 258.28-24.35 256.78-24.5L256.78-24.5 256.78-26.5 268.08-26.5 268.08-11.35Q268.08-8.3 268.16-6.58 268.23-4.85 268.43-4L268.43-4Q268.58-3.35 268.78-2.98 268.98-2.6 269.43-2.38 269.88-2.15 270.66-2.08 271.43-2 272.68-2L272.68-2 272.68-0.05 262.73 0.55 262.18-3.9 261.98-3.9Q260.68-1.8 258.33-0.65 255.98 0.5 253.08 0.5L253.08 0.5Q247.73 0.5 244.93-3.3L244.93-3.3Q242.78-6.2 242.78-11.55L242.78-11.55 242.78-18.3Q242.78-20.35 242.68-21.53 242.58-22.7 242.16-23.3 241.73-23.9 240.88-24.13 240.03-24.35 238.53-24.5L238.53-24.5 238.53-26.5 249.73-26.5 249.73-12.35Q249.73-7.3 250.98-5.03 252.23-2.75 254.98-2.75L254.98-2.75Q257.93-2.75 259.53-5.45L259.53-5.45Q261.13-8.05 261.13-13.1L261.13-13.1ZM284.73-5.4L284.73-5.4Q286.08-5.3 287.1-5.2 288.13-5.1 289.05-4.98 289.98-4.85 290.9-4.73 291.83-4.6 292.88-4.45L292.88-4.45Q296.78-3.9 299-1.53 301.23 0.85 301.23 4.35L301.23 4.35Q301.23 8.6 297.73 10.8 294.23 13 287.43 13L287.43 13Q281.18 13 277.8 11.18 274.43 9.35 274.43 6L274.43 6Q274.43 3.4 275.78 2.08 277.13 0.75 279.18 0.75L279.18 0.75Q280.48 0.75 281.7 1.28 282.93 1.8 283.78 2.8L283.78 2.8Q282.48 3.05 281.65 3.98 280.83 4.9 280.83 6.15L280.83 6.15Q280.83 8.15 282.6 9.22 284.38 10.3 287.83 10.3L287.83 10.3Q295.33 10.3 295.33 5.55L295.33 5.55Q295.33 3.85 294.2 2.63 293.08 1.4 290.98 1.15L290.98 1.15 282.23-0.05Q276.68-0.8 276.68-5L276.68-5Q276.68-7.05 278-8.35 279.33-9.65 281.78-10.15L281.78-10.15 281.78-10.35Q280.63-10.8 279.7-11.6 278.78-12.4 278.08-13.45 277.38-14.5 277-15.73 276.63-16.95 276.63-18.25L276.63-18.25Q276.63-20.1 277.4-21.73 278.18-23.35 279.55-24.5 280.93-25.65 282.8-26.33 284.68-27 286.88-27L286.88-27Q289.03-27 291.08-26.35 293.13-25.7 294.58-24.55L294.58-24.55Q295.73-25.25 296.58-25.73 297.43-26.2 298.15-26.48 298.88-26.75 299.48-26.88 300.08-27 300.68-27L300.68-27Q302.58-27 303.75-26.15 304.93-25.3 304.93-23.9L304.93-23.9Q304.93-22.85 304.28-22.18 303.63-21.5 302.58-21.5L302.58-21.5Q301.83-21.5 301.38-21.83 300.93-22.15 300.5-22.58 300.08-23 299.63-23.33 299.18-23.65 298.43-23.65L298.43-23.65Q297.38-23.65 296.43-22.3L296.43-22.3Q296.93-21.45 297.13-20.48 297.33-19.5 297.33-18.2L297.33-18.2Q297.33-16.3 296.73-14.7 296.13-13.1 294.85-11.88 293.58-10.65 291.58-9.8 289.58-8.95 286.73-8.65L286.73-8.65Q284.33-8.4 283.4-8 282.48-7.6 282.48-6.8L282.48-6.8Q282.48-5.6 284.73-5.4ZM287.13-11.5L287.13-11.5Q288.73-11.5 289.63-13.2 290.53-14.9 290.53-17.95L290.53-17.95Q290.53-21.05 289.63-22.73 288.73-24.4 287.08-24.4L287.08-24.4Q285.38-24.4 284.38-22.7 283.38-21 283.38-18.05L283.38-18.05Q283.38-15.05 284.4-13.28 285.43-11.5 287.13-11.5ZM316.03-14.85L316.03-8.2Q316.03-6.15 316.15-4.98 316.28-3.8 316.7-3.15 317.13-2.5 318-2.3 318.88-2.1 320.38-2L320.38-2 320.38 0 304.63 0 304.63-2Q306.13-2.1 307.03-2.3 307.93-2.5 308.38-3.1 308.83-3.7 308.95-4.83 309.08-5.95 309.08-7.85L309.08-7.85 309.08-28.4Q309.08-31.4 309-33.13 308.93-34.85 308.73-35.75L308.73-35.75Q308.58-36.4 308.38-36.77 308.18-37.15 307.75-37.38 307.33-37.6 306.6-37.68 305.88-37.75 304.78-37.75L304.78-37.75 304.78-39.6 315.93-41.5 315.93-23.05 316.13-23.05Q317.68-25.1 319.6-26.05 321.53-27 324.23-27L324.23-27Q329.13-27 331.83-24L331.83-24Q333.13-22.5 333.88-20.38 334.63-18.25 334.63-15.95L334.63-15.95 334.63-8.2Q334.63-6.1 334.73-4.93 334.83-3.75 335.25-3.13 335.68-2.5 336.53-2.3 337.38-2.1 338.88-2L338.88-2 338.88 0 323.23 0 323.23-2Q324.73-2.05 325.6-2.27 326.48-2.5 326.95-3.1 327.43-3.7 327.55-4.83 327.68-5.95 327.68-7.85L327.68-7.85 327.68-14Q327.68-19.3 326.53-21.5 325.38-23.7 322.58-23.7L322.58-23.7Q319.58-23.7 317.83-21.5L317.83-21.5Q316.98-20.35 316.5-18.65 316.03-16.95 316.03-14.85L316.03-14.85ZM344.42-23.75L340.77-23.75 340.77-26Q343.77-26.85 345.8-28.58 347.82-30.3 348.82-32.55L348.82-32.55 351.37-32.55 351.37-26.5 357.12-26.5 357.12-23.75 351.37-23.75 351.37-8.4Q351.37-5.3 352.05-4 352.72-2.7 354.32-2.7L354.32-2.7Q356.27-2.7 357.27-4.5L357.27-4.5 358.32-3.05Q356.92 0.5 351.72 0.5L351.72 0.5Q348.27 0.5 346.35-1.1 344.42-2.7 344.42-5.6L344.42-5.6 344.42-23.75ZM376.82-23.75L373.17-23.75 373.17-26Q376.17-26.85 378.19-28.58 380.22-30.3 381.22-32.55L381.22-32.55 383.77-32.55 383.77-26.5 389.52-26.5 389.52-23.75 383.77-23.75 383.77-8.4Q383.77-5.3 384.44-4 385.12-2.7 386.72-2.7L386.72-2.7Q388.67-2.7 389.67-4.5L389.67-4.5 390.72-3.05Q389.32 0.5 384.12 0.5L384.12 0.5Q380.67 0.5 378.74-1.1 376.82-2.7 376.82-5.6L376.82-5.6 376.82-23.75ZM407.42-27L407.42-27Q410.42-27 413.09-25.98 415.77-24.95 417.79-23.15 419.82-21.35 420.99-18.88 422.17-16.4 422.17-13.45L422.17-13.45Q422.17-10.4 420.99-7.85 419.82-5.3 417.79-3.45 415.77-1.6 413.09-0.55 410.42 0.5 407.42 0.5L407.42 0.5Q404.47 0.5 401.82-0.53 399.17-1.55 397.17-3.4 395.17-5.25 394.02-7.83 392.87-10.4 392.87-13.45L392.87-13.45Q392.87-16.4 394.02-18.9 395.17-21.4 397.17-23.2 399.17-25 401.82-26 404.47-27 407.42-27ZM407.42-24.1L407.42-24.1Q405.92-24.1 404.67-23.33 403.42-22.55 402.54-21.15 401.67-19.75 401.19-17.78 400.72-15.8 400.72-13.4L400.72-13.4Q400.72-10.9 401.19-8.9 401.67-6.9 402.54-5.5 403.42-4.1 404.64-3.33 405.87-2.55 407.42-2.55L407.42-2.55Q408.97-2.55 410.24-3.33 411.52-4.1 412.42-5.53 413.32-6.95 413.82-8.95 414.32-10.95 414.32-13.4L414.32-13.4Q414.32-15.8 413.82-17.75 413.32-19.7 412.42-21.13 411.52-22.55 410.24-23.33 408.97-24.1 407.42-24.1ZM435.41-5.4L435.41-5.4Q436.76-5.3 437.79-5.2 438.81-5.1 439.74-4.98 440.66-4.85 441.59-4.73 442.51-4.6 443.56-4.45L443.56-4.45Q447.46-3.9 449.69-1.53 451.91 0.85 451.91 4.35L451.91 4.35Q451.91 8.6 448.41 10.8 444.91 13 438.11 13L438.11 13Q431.86 13 428.49 11.18 425.11 9.35 425.11 6L425.11 6Q425.11 3.4 426.46 2.08 427.81 0.75 429.86 0.75L429.86 0.75Q431.16 0.75 432.39 1.28 433.61 1.8 434.46 2.8L434.46 2.8Q433.16 3.05 432.34 3.98 431.51 4.9 431.51 6.15L431.51 6.15Q431.51 8.15 433.29 9.22 435.06 10.3 438.51 10.3L438.51 10.3Q446.01 10.3 446.01 5.55L446.01 5.55Q446.01 3.85 444.89 2.63 443.76 1.4 441.66 1.15L441.66 1.15 432.91-0.05Q427.36-0.8 427.36-5L427.36-5Q427.36-7.05 428.69-8.35 430.01-9.65 432.46-10.15L432.46-10.15 432.46-10.35Q431.31-10.8 430.39-11.6 429.46-12.4 428.76-13.45 428.06-14.5 427.69-15.73 427.31-16.95 427.31-18.25L427.31-18.25Q427.31-20.1 428.09-21.73 428.86-23.35 430.24-24.5 431.61-25.65 433.49-26.33 435.36-27 437.56-27L437.56-27Q439.71-27 441.76-26.35 443.81-25.7 445.26-24.55L445.26-24.55Q446.41-25.25 447.26-25.73 448.11-26.2 448.84-26.48 449.56-26.75 450.16-26.88 450.76-27 451.36-27L451.36-27Q453.26-27 454.44-26.15 455.61-25.3 455.61-23.9L455.61-23.9Q455.61-22.85 454.96-22.18 454.31-21.5 453.26-21.5L453.26-21.5Q452.51-21.5 452.06-21.83 451.61-22.15 451.19-22.58 450.76-23 450.31-23.33 449.86-23.65 449.11-23.65L449.11-23.65Q448.06-23.65 447.11-22.3L447.11-22.3Q447.61-21.45 447.81-20.48 448.01-19.5 448.01-18.2L448.01-18.2Q448.01-16.3 447.41-14.7 446.81-13.1 445.54-11.88 444.26-10.65 442.26-9.8 440.26-8.95 437.41-8.65L437.41-8.65Q435.01-8.4 434.09-8 433.16-7.6 433.16-6.8L433.16-6.8Q433.16-5.6 435.41-5.4ZM437.81-11.5L437.81-11.5Q439.41-11.5 440.31-13.2 441.21-14.9 441.21-17.95L441.21-17.95Q441.21-21.05 440.31-22.73 439.41-24.4 437.76-24.4L437.76-24.4Q436.06-24.4 435.06-22.7 434.06-21 434.06-18.05L434.06-18.05Q434.06-15.05 435.09-13.28 436.11-11.5 437.81-11.5ZM479.81-6.4L481.21-4.65Q476.66 0.5 469.86 0.5L469.86 0.5Q466.76 0.5 464.24-0.48 461.71-1.45 459.91-3.23 458.11-5 457.11-7.45 456.11-9.9 456.11-12.9L456.11-12.9Q456.11-16 457.16-18.57 458.21-21.15 460.14-23.03 462.06-24.9 464.69-25.95 467.31-27 470.46-27L470.46-27Q475.76-27 478.71-24.15 481.66-21.3 481.66-16.15L481.66-16.15Q481.66-15.35 481.41-15.18 481.16-15 480.01-15L480.01-15 463.91-15Q463.71-14.55 463.71-13.35L463.71-13.35Q463.71-8.45 465.84-5.6 467.96-2.75 471.61-2.75L471.61-2.75Q473.71-2.75 475.79-3.7 477.86-4.65 479.81-6.4L479.81-6.4ZM464.26-17.8L471.51-17.8Q473.51-17.8 474.09-18.03 474.66-18.25 474.66-19.1L474.66-19.1Q474.66-21.3 473.41-22.7 472.16-24.1 470.26-24.1L470.26-24.1Q468.11-24.1 466.44-22.33 464.76-20.55 464.26-17.8L464.26-17.8ZM488.36-23.75L484.71-23.75 484.71-26Q487.71-26.85 489.73-28.58 491.76-30.3 492.76-32.55L492.76-32.55 495.31-32.55 495.31-26.5 501.06-26.5 501.06-23.75 495.31-23.75 495.31-8.4Q495.31-5.3 495.98-4 496.66-2.7 498.26-2.7L498.26-2.7Q500.21-2.7 501.21-4.5L501.21-4.5 502.26-3.05Q500.86 0.5 495.66 0.5L495.66 0.5Q492.21 0.5 490.28-1.1 488.36-2.7 488.36-5.6L488.36-5.6 488.36-23.75ZM514.76-14.85L514.76-8.2Q514.76-6.15 514.88-4.98 515.01-3.8 515.43-3.15 515.86-2.5 516.73-2.3 517.61-2.1 519.11-2L519.11-2 519.11 0 503.36 0 503.36-2Q504.86-2.1 505.76-2.3 506.66-2.5 507.11-3.1 507.56-3.7 507.68-4.83 507.81-5.95 507.81-7.85L507.81-7.85 507.81-28.4Q507.81-31.4 507.73-33.13 507.66-34.85 507.46-35.75L507.46-35.75Q507.31-36.4 507.11-36.77 506.91-37.15 506.48-37.38 506.06-37.6 505.33-37.68 504.61-37.75 503.51-37.75L503.51-37.75 503.51-39.6 514.66-41.5 514.66-23.05 514.86-23.05Q516.41-25.1 518.33-26.05 520.26-27 522.96-27L522.96-27Q527.86-27 530.56-24L530.56-24Q531.86-22.5 532.61-20.38 533.36-18.25 533.36-15.95L533.36-15.95 533.36-8.2Q533.36-6.1 533.46-4.93 533.56-3.75 533.98-3.13 534.41-2.5 535.26-2.3 536.11-2.1 537.61-2L537.61-2 537.61 0 521.96 0 521.96-2Q523.46-2.05 524.33-2.27 525.21-2.5 525.68-3.1 526.16-3.7 526.28-4.83 526.41-5.95 526.41-7.85L526.41-7.85 526.41-14Q526.41-19.3 525.26-21.5 524.11-23.7 521.31-23.7L521.31-23.7Q518.31-23.7 516.56-21.5L516.56-21.5Q515.71-20.35 515.23-18.65 514.76-16.95 514.76-14.85L514.76-14.85ZM563.85-6.4L565.25-4.65Q560.7 0.5 553.9 0.5L553.9 0.5Q550.8 0.5 548.28-0.48 545.75-1.45 543.95-3.23 542.15-5 541.15-7.45 540.15-9.9 540.15-12.9L540.15-12.9Q540.15-16 541.2-18.57 542.25-21.15 544.18-23.03 546.1-24.9 548.73-25.95 551.35-27 554.5-27L554.5-27Q559.8-27 562.75-24.15 565.7-21.3 565.7-16.15L565.7-16.15Q565.7-15.35 565.45-15.18 565.2-15 564.05-15L564.05-15 547.95-15Q547.75-14.55 547.75-13.35L547.75-13.35Q547.75-8.45 549.88-5.6 552-2.75 555.65-2.75L555.65-2.75Q557.75-2.75 559.83-3.7 561.9-4.65 563.85-6.4L563.85-6.4ZM548.3-17.8L555.55-17.8Q557.55-17.8 558.13-18.03 558.7-18.25 558.7-19.1L558.7-19.1Q558.7-21.3 557.45-22.7 556.2-24.1 554.3-24.1L554.3-24.1Q552.15-24.1 550.48-22.33 548.8-20.55 548.3-17.8L548.3-17.8ZM580.4-10.15L580.4-7.75Q580.4-5.8 580.58-4.67 580.75-3.55 581.3-2.95 581.85-2.35 582.9-2.18 583.95-2 585.7-2L585.7-2 585.7 0 569 0 569-2Q570.5-2.1 571.4-2.3 572.3-2.5 572.75-3.1 573.2-3.7 573.33-4.83 573.45-5.95 573.45-7.85L573.45-7.85 573.45-13.95Q573.45-17.05 573.3-18.9 573.15-20.75 572.65-21.75 572.15-22.75 571.23-23.08 570.3-23.4 568.8-23.4L568.8-23.4 568.8-25.15 578.8-27 579.6-21.25 579.8-21.25Q581.15-23.9 583.35-25.45 585.55-27 588-27L588-27Q589.9-27 591.1-26.05 592.3-25.1 592.3-23.65L592.3-23.65Q592.3-22.05 591.38-20.95 590.45-19.85 588.85-19.85L588.85-19.85Q588.1-19.85 587.5-20.15 586.9-20.45 586.42-20.83 585.95-21.2 585.48-21.53 585-21.85 584.5-21.85L584.5-21.85Q583.55-21.85 582.7-20.6 581.85-19.35 581.3-17.25L581.3-17.25Q580.9-15.75 580.65-13.88 580.4-12 580.4-10.15L580.4-10.15ZM601.65-10.35L598.65-10.35Q598.65-14.9 598.35-18.05 598.05-21.2 597.65-23.6L597.65-23.6Q597.4-25.1 597.15-26.43 596.9-27.75 596.7-29.03 596.5-30.3 596.37-31.63 596.25-32.95 596.25-34.5L596.25-34.5Q596.25-39 600.15-39L600.15-39Q604.05-39 604.05-34.5L604.05-34.5Q604.05-32.95 603.92-31.63 603.8-30.3 603.6-29.03 603.4-27.75 603.15-26.43 602.9-25.1 602.65-23.6L602.65-23.6Q602.25-21.2 601.95-18.07 601.65-14.95 601.65-10.35L601.65-10.35ZM596.4-3.25L596.4-3.25Q596.4-4.85 597.5-5.95 598.6-7.05 600.2-7.05L600.2-7.05Q601.8-7.05 602.9-5.95 604-4.85 604-3.25L604-3.25Q604-1.65 602.9-0.58 601.8 0.5 600.2 0.5L600.2 0.5Q598.6 0.5 597.5-0.58 596.4-1.65 596.4-3.25Z" opacity="1" transform="matrix(1,0,0,1,0,0)" fill="#f4a424" class="undefined-text-1" data-fill-palette-color="secondary" id="text-1"></path></svg></g></svg></g></svg></g></svg></g></svg></g><defs></defs></svg><rect width="395.52" height="75.72029683838281" fill="none" stroke="none" visibility="hidden"></rect></g></svg></g></svg>